<?xml version="1.0" encoding="UTF-8" standalone="no"?>
<svg
   version="1.2"
   viewBox="0 0 39 5375"
   width="39"
   height="5375"
   id="svg2923"
   sodipodi:docname="background-ink.svg"
   inkscape:version="1.2.2 (b0a8486541, 2022-12-01)"
   xmlns:inkscape="http://www.inkscape.org/namespaces/inkscape"
   xmlns:sodipodi="http://sodipodi.sourceforge.net/DTD/sodipodi-0.dtd"
   xmlns="http://www.w3.org/2000/svg"
   xmlns:svg="http://www.w3.org/2000/svg"
   xmlns:rdf="http://www.w3.org/1999/02/22-rdf-syntax-ns#"
   xmlns:cc="http://creativecommons.org/ns#"
   xmlns:dc="http://purl.org/dc/elements/1.1/">
  <sodipodi:namedview
     id="namedview2925"
     pagecolor="#ffffff"
     bordercolor="#000000"
     borderopacity="0.25"
     inkscape:showpageshadow="2"
     inkscape:pageopacity="0.0"
     inkscape:pagecheckerboard="0"
     inkscape:deskcolor="#d1d1d1"
     showgrid="false"
     inkscape:zoom="4.1970884"
     inkscape:cx="89.228522"
     inkscape:cy="5375.6313"
     inkscape:window-width="2560"
     inkscape:window-height="1381"
     inkscape:window-x="1920"
     inkscape:window-y="33"
     inkscape:window-maximized="1"
     inkscape:current-layer="Web 1920 – 2" />
  <title
     id="title2">Web 1920 – 2</title>
  <defs
     id="defs7">
    <clipPath
       clipPathUnits="userSpaceOnUse"
       id="cp1">
      <path
         d="M 0,0 H 1920 V 6641 H 0 Z"
         id="path4" />
    </clipPath>
  </defs>
  <style
     id="style9">
		.s0 { fill: #ededed } 
		.s1 { fill: #d6d6d6 } 
	</style>
  <g
     id="Web 1920 – 2"
     clip-path="url(#cp1)"
     transform="translate(-12)">
    <g
       id="g11141"
       style="display:none">
      <path
         id="Path 154"
         class="s1"
         d="m 0.4,25.2 c -0.4,0 -0.7,-0.4 -0.7,-0.9 0,-0.5 0.3,-0.9 0.7,-0.9 0.4,0 0.7,0.4 0.7,0.9 0,0.5 -0.3,0.9 -0.7,0.9 z" />
      <path
         id="Path 155"
         class="s1"
         d="m 0.4,79.8 c -1,0 -1.8,-1 -1.8,-2.2 0,-1.2 0.8,-2.2 1.8,-2.2 1,0 1.8,1 1.8,2.2 0,1.2 -0.8,2.2 -1.8,2.2 z" />
      <path
         id="Path 156"
         class="s1"
         d="m 0.4,134.1 c -1.5,0 -2.6,-1.4 -2.6,-3.2 0,-1.8 1.1,-3.3 2.6,-3.3 1.4,0 2.6,1.5 2.6,3.3 0,1.8 -1.2,3.2 -2.6,3.2 z" />
      <path
         id="Path 157"
         class="s1"
         d="m 0.4,188.4 c -1.9,0 -3.5,-1.9 -3.5,-4.3 0,-2.4 1.6,-4.3 3.5,-4.3 1.9,0 3.5,1.9 3.5,4.3 0,2.4 -1.6,4.3 -3.5,4.3 z" />
      <path
         id="Path 158"
         class="s1"
         d="m 0.4,242.5 c -2.3,0 -4.2,-2.3 -4.2,-5.1 0,-2.9 1.9,-5.2 4.2,-5.2 2.3,0 4.1,2.3 4.1,5.2 0,2.8 -1.8,5.1 -4.1,5.1 z" />
      <path
         id="Path 159"
         class="s1"
         d="m 0.4,296.6 c -2.7,0 -4.8,-2.7 -4.8,-6 0,-3.2 2.1,-5.9 4.8,-5.9 2.6,0 4.8,2.7 4.8,5.9 0,3.3 -2.2,6 -4.8,6 z" />
      <path
         id="Path 160"
         class="s1"
         d="m 0.4,350.4 c -2.9,0 -5.3,-2.9 -5.3,-6.5 0,-3.6 2.4,-6.5 5.3,-6.5 2.9,0 5.3,2.9 5.3,6.5 0,3.6 -2.4,6.5 -5.3,6.5 z" />
      <path
         id="Path 161"
         class="s1"
         d="m 0.4,404.3 c -3.2,0 -5.8,-3.2 -5.8,-7.1 0,-4 2.6,-7.1 5.8,-7.1 3.2,0 5.7,3.1 5.7,7.1 0,3.9 -2.5,7.1 -5.7,7.1 z" />
      <path
         id="Path 162"
         class="s1"
         d="m 0.4,458 c -3.4,0 -6.1,-3.4 -6.1,-7.6 0,-4.1 2.7,-7.5 6.1,-7.5 3.3,0 6.1,3.4 6.1,7.5 0,4.2 -2.8,7.6 -6.1,7.6 z" />
      <path
         id="Path 163"
         class="s1"
         d="m 0.4,511.6 c -3.6,0 -6.4,-3.5 -6.4,-7.9 0,-4.4 2.8,-7.9 6.4,-7.9 3.5,0 6.4,3.5 6.4,7.9 0,4.4 -2.9,7.9 -6.4,7.9 z" />
      <path
         id="Path 164"
         class="s1"
         d="m 0.4,565.2 c -3.7,0 -6.7,-3.7 -6.7,-8.2 0,-4.6 3,-8.3 6.7,-8.3 3.7,0 6.6,3.7 6.6,8.3 0,4.5 -2.9,8.2 -6.6,8.2 z" />
      <path
         id="Path 165"
         class="s1"
         d="m 0.4,618.7 c -3.8,0 -6.8,-3.8 -6.8,-8.5 0,-4.6 3,-8.4 6.8,-8.4 3.7,0 6.8,3.8 6.8,8.4 0,4.7 -3.1,8.5 -6.8,8.5 z" />
      <path
         id="Path 166"
         class="s1"
         d="m 0.4,672.1 c -3.9,0 -7,-3.9 -7,-8.6 0,-4.8 3.1,-8.6 7,-8.6 3.8,0 6.9,3.8 6.9,8.6 0,4.7 -3.1,8.6 -6.9,8.6 z" />
      <path
         id="Path 167"
         class="s1"
         d="m 0.4,725.4 c -3.9,0 -7,-3.9 -7,-8.7 0,-4.7 3.1,-8.6 7,-8.6 3.8,0 7,3.9 7,8.6 0,4.8 -3.2,8.7 -7,8.7 z" />
      <path
         id="Path 168"
         class="s1"
         d="m 0.4,778.6 c -3.8,0 -6.9,-3.9 -6.9,-8.6 0,-4.7 3.1,-8.6 6.9,-8.6 3.8,0 6.9,3.9 6.9,8.6 0,4.7 -3.1,8.6 -6.9,8.6 z" />
      <path
         id="Path 169"
         class="s1"
         d="m 0.4,831.4 c -3.7,0 -6.6,-3.6 -6.6,-8.1 0,-4.5 2.9,-8.2 6.6,-8.2 3.6,0 6.6,3.7 6.6,8.2 0,4.5 -3,8.1 -6.6,8.1 z" />
      <path
         id="Path 170"
         class="s1"
         d="m 0.4,884 c -3.4,0 -6.1,-3.3 -6.1,-7.5 0,-4.1 2.7,-7.5 6.1,-7.5 3.3,0 6,3.4 6,7.5 0,4.2 -2.7,7.5 -6,7.5 z" />
      <path
         id="Path 171"
         class="s1"
         d="m 0.4,936.5 c -3,0 -5.4,-3 -5.4,-6.7 0,-3.7 2.4,-6.7 5.4,-6.7 3,0 5.4,3 5.4,6.7 0,3.7 -2.4,6.7 -5.4,6.7 z" />
      <path
         id="Path 172"
         class="s1"
         d="m 0.4,988.9 c -2.6,0 -4.8,-2.6 -4.8,-5.8 0,-3.3 2.2,-5.9 4.8,-5.9 2.6,0 4.7,2.6 4.7,5.9 0,3.2 -2.1,5.8 -4.7,5.8 z" />
      <path
         id="Path 173"
         class="s1"
         d="m 0.4,1041.4 c -2.3,0 -4.1,-2.3 -4.1,-5.1 0,-2.8 1.8,-5 4.1,-5 2.2,0 4.1,2.2 4.1,5 0,2.8 -1.9,5.1 -4.1,5.1 z" />
      <path
         id="Path 174"
         class="s1"
         d="m 0.4,1093.9 c -1.9,0 -3.5,-2 -3.5,-4.3 0,-2.4 1.6,-4.3 3.5,-4.3 1.9,0 3.4,1.9 3.4,4.3 0,2.3 -1.5,4.3 -3.4,4.3 z" />
      <path
         id="Path 175"
         class="s1"
         d="m 0.4,1146.4 c -1.6,0 -2.9,-1.6 -2.9,-3.5 0,-2 1.3,-3.6 2.9,-3.6 1.6,0 2.9,1.6 2.9,3.6 0,1.9 -1.3,3.5 -2.9,3.5 z" />
      <path
         id="Path 176"
         class="s1"
         d="m 0.4,1199.3 c -1.4,0 -2.6,-1.4 -2.6,-3.2 0,-1.7 1.2,-3.1 2.6,-3.1 1.4,0 2.5,1.4 2.5,3.1 0,1.8 -1.1,3.2 -2.5,3.2 z" />
      <path
         id="Path 177"
         class="s1"
         d="m 0.4,1252.4 c -1.4,0 -2.5,-1.3 -2.5,-3 0,-1.7 1.1,-3 2.5,-3 1.3,0 2.4,1.3 2.4,3 0,1.7 -1.1,3 -2.4,3 z" />
      <path
         id="Path 178"
         class="s1"
         d="m 0.4,1305.7 c -1.4,0 -2.5,-1.4 -2.5,-3.1 0,-1.6 1.1,-3 2.5,-3 1.3,0 2.4,1.4 2.4,3 0,1.7 -1.1,3.1 -2.4,3.1 z" />
      <path
         id="Path 179"
         class="s1"
         d="m 0.4,1359.1 c -1.4,0 -2.6,-1.4 -2.6,-3.2 0,-1.8 1.2,-3.2 2.6,-3.2 1.4,0 2.6,1.4 2.6,3.2 0,1.8 -1.2,3.2 -2.6,3.2 z" />
      <path
         id="Path 180"
         class="s1"
         d="m 0.4,1412.5 c -1.5,0 -2.7,-1.5 -2.7,-3.3 0,-1.9 1.2,-3.4 2.7,-3.4 1.5,0 2.7,1.5 2.7,3.4 0,1.8 -1.2,3.3 -2.7,3.3 z" />
      <path
         id="Path 181"
         class="s1"
         d="m 0.4,1466 c -1.6,0 -2.9,-1.6 -2.9,-3.6 0,-1.9 1.3,-3.5 2.9,-3.5 1.6,0 2.9,1.6 2.9,3.5 0,2 -1.3,3.6 -2.9,3.6 z" />
      <path
         id="Path 182"
         class="s1"
         d="m 0.4,1519.4 c -1.7,0 -3,-1.6 -3,-3.7 0,-2.1 1.3,-3.7 3,-3.7 1.6,0 3,1.6 3,3.7 0,2.1 -1.4,3.7 -3,3.7 z" />
      <path
         id="Path 183"
         class="s1"
         d="m 0.4,1572.9 c -1.8,0 -3.2,-1.8 -3.2,-3.9 0,-2.2 1.4,-3.9 3.2,-3.9 1.7,0 3.1,1.7 3.1,3.9 0,2.1 -1.4,3.9 -3.1,3.9 z" />
      <path
         id="Path 184"
         class="s1"
         d="m 0.4,1626.3 c -1.8,0 -3.3,-1.8 -3.3,-4.1 0,-2.2 1.5,-4.1 3.3,-4.1 1.8,0 3.3,1.9 3.3,4.1 0,2.3 -1.5,4.1 -3.3,4.1 z" />
      <path
         id="Path 185"
         class="s1"
         d="m 0.4,1679.9 c -2,0 -3.6,-2 -3.6,-4.4 0,-2.4 1.6,-4.4 3.6,-4.4 1.9,0 3.5,2 3.5,4.4 0,2.4 -1.6,4.4 -3.5,4.4 z" />
      <path
         id="Path 186"
         class="s1"
         d="m 0.4,1733.4 c -2.1,0 -3.8,-2.1 -3.8,-4.6 0,-2.6 1.7,-4.7 3.8,-4.7 2.1,0 3.7,2.1 3.7,4.7 0,2.5 -1.6,4.6 -3.7,4.6 z" />
      <path
         id="Path 187"
         class="s1"
         d="m 0.4,1786.9 c -2.2,0 -4,-2.2 -4,-4.9 0,-2.7 1.8,-4.9 4,-4.9 2.2,0 4,2.2 4,4.9 0,2.7 -1.8,4.9 -4,4.9 z" />
      <path
         id="Path 188"
         class="s1"
         d="m 0.4,1840.5 c -2.3,0 -4.2,-2.3 -4.2,-5.2 0,-2.9 1.9,-5.2 4.2,-5.2 2.3,0 4.2,2.3 4.2,5.2 0,2.9 -1.9,5.2 -4.2,5.2 z" />
      <path
         id="Path 189"
         class="s1"
         d="m 0.4,1894 c -2.5,0 -4.5,-2.4 -4.5,-5.5 0,-3 2,-5.4 4.5,-5.4 2.4,0 4.4,2.4 4.4,5.4 0,3.1 -2,5.5 -4.4,5.5 z" />
      <path
         id="Path 190"
         class="s1"
         d="m 0.4,1947.7 c -2.7,0 -4.8,-2.6 -4.8,-5.9 0,-3.3 2.1,-5.9 4.8,-5.9 2.6,0 4.8,2.6 4.8,5.9 0,3.3 -2.2,5.9 -4.8,5.9 z" />
      <path
         id="Path 191"
         class="s1"
         d="m 0.4,2001.4 c -2.8,0 -5.1,-2.8 -5.1,-6.3 0,-3.5 2.3,-6.4 5.1,-6.4 2.8,0 5.1,2.9 5.1,6.4 0,3.5 -2.3,6.3 -5.1,6.3 z" />
      <path
         id="Path 192"
         class="s1"
         d="m 0.4,2055.1 c -3,0 -5.5,-3 -5.5,-6.8 0,-3.7 2.5,-6.7 5.5,-6.7 3,0 5.4,3 5.4,6.7 0,3.8 -2.4,6.8 -5.4,6.8 z" />
      <path
         id="Path 193"
         class="s1"
         d="m 0.4,2108.8 c -3.2,0 -5.8,-3.3 -5.8,-7.2 0,-4 2.6,-7.2 5.8,-7.2 3.2,0 5.8,3.2 5.8,7.2 0,3.9 -2.6,7.2 -5.8,7.2 z" />
      <path
         id="Path 194"
         class="s1"
         d="m 0.4,2162.4 c -3.4,0 -6.1,-3.4 -6.1,-7.5 0,-4.2 2.7,-7.6 6.1,-7.6 3.4,0 6.1,3.4 6.1,7.6 0,4.1 -2.7,7.5 -6.1,7.5 z" />
      <path
         id="Path 195"
         class="s1"
         d="m 0.4,2216.1 c -3.6,0 -6.5,-3.6 -6.5,-8 0,-4.4 2.9,-8 6.5,-8 3.6,0 6.5,3.6 6.5,8 0,4.4 -2.9,8 -6.5,8 z" />
      <path
         id="Path 196"
         class="s1"
         d="m 0.4,2269.8 c -3.8,0 -6.8,-3.8 -6.8,-8.4 0,-4.7 3,-8.4 6.8,-8.4 3.7,0 6.8,3.7 6.8,8.4 0,4.6 -3.1,8.4 -6.8,8.4 z" />
      <path
         id="Path 197"
         class="s1"
         d="m 0.4,2323.5 c -4,0 -7.2,-4 -7.2,-8.9 0,-4.8 3.2,-8.8 7.2,-8.8 3.9,0 7.1,4 7.1,8.8 0,4.9 -3.2,8.9 -7.1,8.9 z" />
      <path
         id="Path 198"
         class="s1"
         d="m 0.4,2377.3 c -4.2,0 -7.6,-4.2 -7.6,-9.4 0,-5.2 3.4,-9.4 7.6,-9.4 4.2,0 7.6,4.2 7.6,9.4 0,5.2 -3.4,9.4 -7.6,9.4 z" />
      <path
         id="Path 199"
         class="s1"
         d="m 0.4,2431.2 c -4.5,0 -8.1,-4.5 -8.1,-10 0,-5.6 3.6,-10.1 8.1,-10.1 4.5,0 8.1,4.5 8.1,10.1 0,5.5 -3.6,10 -8.1,10 z" />
      <path
         id="Path 200"
         class="s1"
         d="m 0.4,2485.1 c -4.8,0 -8.6,-4.8 -8.6,-10.7 0,-5.8 3.8,-10.6 8.6,-10.6 4.7,0 8.6,4.8 8.6,10.6 0,5.9 -3.9,10.7 -8.6,10.7 z" />
      <path
         id="Path 201"
         class="s1"
         d="m 0.4,2538.9 c -5,0 -9.1,-5 -9.1,-11.2 0,-6.2 4.1,-11.2 9.1,-11.2 5,0 9.1,5 9.1,11.2 0,6.2 -4.1,11.2 -9.1,11.2 z" />
      <path
         id="Path 202"
         class="s1"
         d="m 0.4,2592.8 c -5.3,0 -9.6,-5.3 -9.6,-11.8 0,-6.6 4.3,-11.9 9.6,-11.9 5.3,0 9.6,5.3 9.6,11.9 0,6.5 -4.3,11.8 -9.6,11.8 z" />
      <path
         id="Path 203"
         class="s1"
         d="m 0.4,2646.8 c -5.6,0 -10.2,-5.6 -10.2,-12.6 0,-6.9 4.6,-12.6 10.2,-12.6 5.6,0 10.1,5.7 10.1,12.6 0,7 -4.5,12.6 -10.1,12.6 z" />
      <path
         id="Path 204"
         class="s1"
         d="m 0.4,2700.8 c -6,0 -10.8,-5.9 -10.8,-13.3 0,-7.4 4.8,-13.4 10.8,-13.4 5.9,0 10.8,6 10.8,13.4 0,7.4 -4.9,13.3 -10.8,13.3 z" />
    </g>
    <g
       id="g11088"
       style="display:none">
      <path
         id="Path 256"
         class="s1"
         d="m 77.1,25.2 c -0.4,0 -0.7,-0.4 -0.7,-0.9 0,-0.5 0.3,-0.9 0.7,-0.9 0.4,0 0.7,0.4 0.7,0.9 0,0.5 -0.3,0.9 -0.7,0.9 z" />
      <path
         id="Path 257"
         class="s1"
         d="m 77.1,79.8 c -1,0 -1.8,-1 -1.8,-2.2 0,-1.2 0.8,-2.2 1.8,-2.2 1,0 1.8,1 1.8,2.2 0,1.2 -0.8,2.2 -1.8,2.2 z" />
      <path
         id="Path 258"
         class="s1"
         d="m 77.1,134.1 c -1.4,0 -2.6,-1.4 -2.6,-3.2 0,-1.8 1.2,-3.3 2.6,-3.3 1.5,0 2.6,1.5 2.6,3.3 0,1.8 -1.1,3.2 -2.6,3.2 z" />
      <path
         id="Path 259"
         class="s1"
         d="m 77.1,188.4 c -1.9,0 -3.5,-1.9 -3.5,-4.3 0,-2.4 1.6,-4.3 3.5,-4.3 1.9,0 3.5,1.9 3.5,4.3 0,2.4 -1.6,4.3 -3.5,4.3 z" />
      <path
         id="Path 260"
         class="s1"
         d="m 77.1,242.5 c -2.3,0 -4.2,-2.3 -4.2,-5.1 0,-2.9 1.9,-5.2 4.2,-5.2 2.3,0 4.2,2.3 4.2,5.2 0,2.8 -1.9,5.1 -4.2,5.1 z" />
      <path
         id="Path 261"
         class="s1"
         d="m 77.1,296.6 c -2.6,0 -4.8,-2.7 -4.8,-6 0,-3.2 2.2,-5.9 4.8,-5.9 2.7,0 4.8,2.7 4.8,5.9 0,3.3 -2.1,6 -4.8,6 z" />
      <path
         id="Path 262"
         class="s1"
         d="m 77.1,350.4 c -2.9,0 -5.3,-2.9 -5.3,-6.5 0,-3.6 2.4,-6.5 5.3,-6.5 2.9,0 5.3,2.9 5.3,6.5 0,3.6 -2.4,6.5 -5.3,6.5 z" />
      <path
         id="Path 263"
         class="s1"
         d="m 77.1,404.3 c -3.2,0 -5.7,-3.2 -5.7,-7.1 0,-4 2.5,-7.1 5.7,-7.1 3.2,0 5.8,3.1 5.8,7.1 0,3.9 -2.6,7.1 -5.8,7.1 z" />
      <path
         id="Path 264"
         class="s1"
         d="m 77.1,458 c -3.3,0 -6.1,-3.4 -6.1,-7.6 0,-4.1 2.8,-7.5 6.1,-7.5 3.4,0 6.1,3.4 6.1,7.5 0,4.2 -2.7,7.6 -6.1,7.6 z" />
      <path
         id="Path 265"
         class="s1"
         d="m 77.1,511.6 c -3.5,0 -6.4,-3.5 -6.4,-7.9 0,-4.4 2.9,-7.9 6.4,-7.9 3.5,0 6.4,3.5 6.4,7.9 0,4.4 -2.9,7.9 -6.4,7.9 z" />
      <path
         id="Path 266"
         class="s1"
         d="m 77.1,565.2 c -3.7,0 -6.6,-3.7 -6.6,-8.2 0,-4.6 2.9,-8.3 6.6,-8.3 3.7,0 6.7,3.7 6.7,8.3 0,4.5 -3,8.2 -6.7,8.2 z" />
      <path
         id="Path 267"
         class="s1"
         d="m 77.1,618.7 c -3.8,0 -6.8,-3.8 -6.8,-8.5 0,-4.6 3,-8.4 6.8,-8.4 3.8,0 6.8,3.8 6.8,8.4 0,4.7 -3,8.5 -6.8,8.5 z" />
      <path
         id="Path 268"
         class="s1"
         d="m 77.1,672.1 c -3.8,0 -7,-3.9 -7,-8.6 0,-4.8 3.2,-8.6 7,-8.6 3.9,0 7,3.8 7,8.6 0,4.7 -3.1,8.6 -7,8.6 z" />
      <path
         id="Path 269"
         class="s1"
         d="m 77.1,725.4 c -3.9,0 -7,-3.9 -7,-8.7 0,-4.7 3.1,-8.6 7,-8.6 3.9,0 7,3.9 7,8.6 0,4.8 -3.1,8.7 -7,8.7 z" />
      <path
         id="Path 270"
         class="s1"
         d="m 77.1,778.6 c -3.8,0 -6.9,-3.9 -6.9,-8.6 0,-4.7 3.1,-8.6 6.9,-8.6 3.8,0 6.9,3.9 6.9,8.6 0,4.7 -3.1,8.6 -6.9,8.6 z" />
      <path
         id="Path 271"
         class="s1"
         d="m 77.1,831.4 c -3.6,0 -6.6,-3.6 -6.6,-8.1 0,-4.5 3,-8.2 6.6,-8.2 3.6,0 6.6,3.7 6.6,8.2 0,4.5 -3,8.1 -6.6,8.1 z" />
      <path
         id="Path 272"
         class="s1"
         d="m 77.1,884 c -3.3,0 -6.1,-3.3 -6.1,-7.5 0,-4.1 2.8,-7.5 6.1,-7.5 3.4,0 6.1,3.4 6.1,7.5 0,4.2 -2.7,7.5 -6.1,7.5 z" />
      <path
         id="Path 273"
         class="s1"
         d="m 77.1,936.5 c -3,0 -5.4,-3 -5.4,-6.7 0,-3.7 2.4,-6.7 5.4,-6.7 3,0 5.4,3 5.4,6.7 0,3.7 -2.4,6.7 -5.4,6.7 z" />
      <path
         id="Path 274"
         class="s1"
         d="m 77.1,988.9 c -2.6,0 -4.7,-2.6 -4.7,-5.8 0,-3.3 2.1,-5.9 4.7,-5.9 2.6,0 4.8,2.6 4.8,5.9 0,3.2 -2.2,5.8 -4.8,5.8 z" />
      <path
         id="Path 275"
         class="s1"
         d="m 77.1,1041.4 c -2.3,0 -4.1,-2.3 -4.1,-5.1 0,-2.8 1.8,-5 4.1,-5 2.3,0 4.1,2.2 4.1,5 0,2.8 -1.8,5.1 -4.1,5.1 z" />
      <path
         id="Path 276"
         class="s1"
         d="m 77.1,1093.9 c -1.9,0 -3.4,-2 -3.4,-4.3 0,-2.4 1.5,-4.3 3.4,-4.3 1.9,0 3.5,1.9 3.5,4.3 0,2.3 -1.6,4.3 -3.5,4.3 z" />
      <path
         id="Path 277"
         class="s1"
         d="m 77.1,1146.4 c -1.6,0 -2.9,-1.6 -2.9,-3.5 0,-2 1.3,-3.6 2.9,-3.6 1.6,0 2.9,1.6 2.9,3.6 0,1.9 -1.3,3.5 -2.9,3.5 z" />
      <path
         id="Path 278"
         class="s1"
         d="m 77.1,1199.3 c -1.4,0 -2.5,-1.4 -2.5,-3.2 0,-1.7 1.1,-3.1 2.5,-3.1 1.4,0 2.5,1.4 2.5,3.1 0,1.8 -1.1,3.2 -2.5,3.2 z" />
      <path
         id="Path 279"
         class="s1"
         d="m 77.1,1252.4 c -1.3,0 -2.4,-1.3 -2.4,-3 0,-1.7 1.1,-3 2.4,-3 1.4,0 2.5,1.3 2.5,3 0,1.7 -1.1,3 -2.5,3 z" />
      <path
         id="Path 280"
         class="s1"
         d="m 77.1,1305.7 c -1.3,0 -2.4,-1.4 -2.4,-3.1 0,-1.6 1.1,-3 2.4,-3 1.4,0 2.5,1.4 2.5,3 0,1.7 -1.1,3.1 -2.5,3.1 z" />
      <path
         id="Path 281"
         class="s1"
         d="m 77.1,1359.1 c -1.4,0 -2.6,-1.4 -2.6,-3.2 0,-1.8 1.2,-3.2 2.6,-3.2 1.4,0 2.6,1.4 2.6,3.2 0,1.8 -1.2,3.2 -2.6,3.2 z" />
      <path
         id="Path 282"
         class="s1"
         d="m 77.1,1412.5 c -1.5,0 -2.7,-1.5 -2.7,-3.3 0,-1.9 1.2,-3.4 2.7,-3.4 1.5,0 2.7,1.5 2.7,3.4 0,1.8 -1.2,3.3 -2.7,3.3 z" />
      <path
         id="Path 283"
         class="s1"
         d="m 77.1,1466 c -1.6,0 -2.9,-1.6 -2.9,-3.6 0,-1.9 1.3,-3.5 2.9,-3.5 1.6,0 2.9,1.6 2.9,3.5 0,2 -1.3,3.6 -2.9,3.6 z" />
      <path
         id="Path 284"
         class="s1"
         d="m 77.1,1519.4 c -1.7,0 -3,-1.6 -3,-3.7 0,-2.1 1.3,-3.7 3,-3.7 1.7,0 3,1.6 3,3.7 0,2.1 -1.3,3.7 -3,3.7 z" />
      <path
         id="Path 285"
         class="s1"
         d="m 77.1,1572.9 c -1.7,0 -3.1,-1.8 -3.1,-3.9 0,-2.2 1.4,-3.9 3.1,-3.9 1.8,0 3.2,1.7 3.2,3.9 0,2.1 -1.4,3.9 -3.2,3.9 z" />
      <path
         id="Path 286"
         class="s1"
         d="m 77.1,1626.3 c -1.8,0 -3.3,-1.8 -3.3,-4.1 0,-2.2 1.5,-4.1 3.3,-4.1 1.8,0 3.3,1.9 3.3,4.1 0,2.3 -1.5,4.1 -3.3,4.1 z" />
      <path
         id="Path 287"
         class="s1"
         d="m 77.1,1679.9 c -1.9,0 -3.5,-2 -3.5,-4.4 0,-2.4 1.6,-4.4 3.5,-4.4 2,0 3.5,2 3.5,4.4 0,2.4 -1.5,4.4 -3.5,4.4 z" />
      <path
         id="Path 288"
         class="s1"
         d="m 77.1,1733.4 c -2.1,0 -3.8,-2.1 -3.8,-4.6 0,-2.6 1.7,-4.7 3.8,-4.7 2.1,0 3.8,2.1 3.8,4.7 0,2.5 -1.7,4.6 -3.8,4.6 z" />
      <path
         id="Path 289"
         class="s1"
         d="m 77.1,1786.9 c -2.2,0 -4,-2.2 -4,-4.9 0,-2.7 1.8,-4.9 4,-4.9 2.2,0 4,2.2 4,4.9 0,2.7 -1.8,4.9 -4,4.9 z" />
      <path
         id="Path 290"
         class="s1"
         d="m 77.1,1840.5 c -2.3,0 -4.2,-2.3 -4.2,-5.2 0,-2.9 1.9,-5.2 4.2,-5.2 2.3,0 4.2,2.3 4.2,5.2 0,2.9 -1.9,5.2 -4.2,5.2 z" />
      <path
         id="Path 291"
         class="s1"
         d="m 77.1,1894 c -2.4,0 -4.4,-2.4 -4.4,-5.5 0,-3 2,-5.4 4.4,-5.4 2.5,0 4.4,2.4 4.4,5.4 0,3.1 -1.9,5.5 -4.4,5.5 z" />
      <path
         id="Path 292"
         class="s1"
         d="m 77.1,1947.7 c -2.6,0 -4.8,-2.6 -4.8,-5.9 0,-3.3 2.2,-5.9 4.8,-5.9 2.6,0 4.8,2.6 4.8,5.9 0,3.3 -2.2,5.9 -4.8,5.9 z" />
      <path
         id="Path 293"
         class="s1"
         d="m 77.1,2001.4 c -2.8,0 -5.1,-2.8 -5.1,-6.3 0,-3.5 2.3,-6.4 5.1,-6.4 2.8,0 5.1,2.9 5.1,6.4 0,3.5 -2.3,6.3 -5.1,6.3 z" />
      <path
         id="Path 294"
         class="s1"
         d="m 77.1,2055.1 c -3,0 -5.4,-3 -5.4,-6.8 0,-3.7 2.4,-6.7 5.4,-6.7 3,0 5.5,3 5.5,6.7 0,3.8 -2.5,6.8 -5.5,6.8 z" />
      <path
         id="Path 295"
         class="s1"
         d="m 77.1,2108.8 c -3.2,0 -5.8,-3.3 -5.8,-7.2 0,-4 2.6,-7.2 5.8,-7.2 3.2,0 5.8,3.2 5.8,7.2 0,3.9 -2.6,7.2 -5.8,7.2 z" />
      <path
         id="Path 296"
         class="s1"
         d="m 77.1,2162.4 c -3.4,0 -6.1,-3.4 -6.1,-7.5 0,-4.2 2.7,-7.6 6.1,-7.6 3.4,0 6.1,3.4 6.1,7.6 0,4.1 -2.7,7.5 -6.1,7.5 z" />
      <path
         id="Path 297"
         class="s1"
         d="m 77.1,2216.1 c -3.6,0 -6.5,-3.6 -6.5,-8 0,-4.4 2.9,-8 6.5,-8 3.6,0 6.5,3.6 6.5,8 0,4.4 -2.9,8 -6.5,8 z" />
      <path
         id="Path 298"
         class="s1"
         d="m 77.1,2269.8 c -3.8,0 -6.8,-3.8 -6.8,-8.4 0,-4.7 3,-8.4 6.8,-8.4 3.8,0 6.8,3.7 6.8,8.4 0,4.6 -3,8.4 -6.8,8.4 z" />
      <path
         id="Path 299"
         class="s1"
         d="m 77.1,2323.5 c -3.9,0 -7.1,-4 -7.1,-8.9 0,-4.8 3.2,-8.8 7.1,-8.8 4,0 7.2,4 7.2,8.8 0,4.9 -3.2,8.9 -7.2,8.9 z" />
      <path
         id="Path 300"
         class="s1"
         d="m 77.1,2377.3 c -4.2,0 -7.6,-4.2 -7.6,-9.4 0,-5.2 3.4,-9.4 7.6,-9.4 4.2,0 7.6,4.2 7.6,9.4 0,5.2 -3.4,9.4 -7.6,9.4 z" />
      <path
         id="Path 301"
         class="s1"
         d="m 77.1,2431.2 c -4.5,0 -8.1,-4.5 -8.1,-10 0,-5.6 3.6,-10.1 8.1,-10.1 4.5,0 8.1,4.5 8.1,10.1 0,5.5 -3.6,10 -8.1,10 z" />
      <path
         id="Path 302"
         class="s1"
         d="m 77.1,2485.1 c -4.7,0 -8.6,-4.8 -8.6,-10.7 0,-5.8 3.9,-10.6 8.6,-10.6 4.8,0 8.6,4.8 8.6,10.6 0,5.9 -3.8,10.7 -8.6,10.7 z" />
      <path
         id="Path 303"
         class="s1"
         d="m 77.1,2538.9 c -5,0 -9.1,-5 -9.1,-11.2 0,-6.2 4.1,-11.2 9.1,-11.2 5,0 9.1,5 9.1,11.2 0,6.2 -4.1,11.2 -9.1,11.2 z" />
      <path
         id="Path 304"
         class="s1"
         d="m 77.1,2592.8 c -5.3,0 -9.6,-5.3 -9.6,-11.8 0,-6.6 4.3,-11.9 9.6,-11.9 5.3,0 9.6,5.3 9.6,11.9 0,6.5 -4.3,11.8 -9.6,11.8 z" />
      <path
         id="Path 305"
         class="s1"
         d="m 77.1,2646.8 c -5.6,0 -10.2,-5.6 -10.2,-12.6 0,-6.9 4.6,-12.6 10.2,-12.6 5.6,0 10.2,5.7 10.2,12.6 0,7 -4.6,12.6 -10.2,12.6 z" />
      <path
         id="Path 306"
         class="s1"
         d="m 77.1,2700.8 c -6,0 -10.8,-5.9 -10.8,-13.3 0,-7.4 4.8,-13.4 10.8,-13.4 6,0 10.8,6 10.8,13.4 0,7.4 -4.8,13.3 -10.8,13.3 z" />
    </g>
    <rect
       style="display:none;fill:#aa0000;fill-opacity:0.539054;stroke-width:2.25384"
       id="rect11407"
       width="39"
       height="5375"
       x="12"
       y="0" />
    <g
       id="g11035"
       style="display:inline">
      <path
         id="Path 205"
         class="s1"
         d="m 38.7,25.2 c -0.3,0 -0.7,-0.4 -0.7,-0.9 0,-0.5 0.4,-0.9 0.7,-0.9 0.4,0 0.8,0.4 0.8,0.9 0,0.5 -0.4,0.9 -0.8,0.9 z" />
      <path
         id="Path 206"
         class="s1"
         d="m 38.7,79.8 c -0.9,0 -1.7,-1 -1.7,-2.2 0,-1.2 0.8,-2.2 1.7,-2.2 1,0 1.8,1 1.8,2.2 0,1.2 -0.8,2.2 -1.8,2.2 z" />
      <path
         id="Path 207"
         class="s1"
         d="m 38.7,134.1 c -1.4,0 -2.6,-1.4 -2.6,-3.2 0,-1.8 1.2,-3.3 2.6,-3.3 1.5,0 2.7,1.5 2.7,3.3 0,1.8 -1.2,3.2 -2.7,3.2 z" />
      <path
         id="Path 208"
         class="s1"
         d="m 38.7,188.4 c -1.9,0 -3.4,-1.9 -3.4,-4.3 0,-2.4 1.5,-4.3 3.4,-4.3 2,0 3.5,1.9 3.5,4.3 0,2.4 -1.5,4.3 -3.5,4.3 z" />
      <path
         id="Path 209"
         class="s1"
         d="m 38.7,242.5 c -2.3,0 -4.1,-2.3 -4.1,-5.1 0,-2.9 1.8,-5.2 4.1,-5.2 2.3,0 4.2,2.3 4.2,5.2 0,2.8 -1.9,5.1 -4.2,5.1 z" />
      <path
         id="Path 210"
         class="s1"
         d="m 38.7,296.6 c -2.6,0 -4.7,-2.7 -4.7,-6 0,-3.2 2.1,-5.9 4.7,-5.9 2.7,0 4.8,2.7 4.8,5.9 0,3.3 -2.1,6 -4.8,6 z" />
      <path
         id="Path 211"
         class="s1"
         d="m 38.7,350.4 c -2.9,0 -5.2,-2.9 -5.2,-6.5 0,-3.6 2.3,-6.5 5.2,-6.5 3,0 5.3,2.9 5.3,6.5 0,3.6 -2.3,6.5 -5.3,6.5 z" />
      <path
         id="Path 212"
         class="s1"
         d="m 38.7,404.3 c -3.1,0 -5.7,-3.2 -5.7,-7.1 0,-4 2.6,-7.1 5.7,-7.1 3.2,0 5.8,3.1 5.8,7.1 0,3.9 -2.6,7.1 -5.8,7.1 z" />
      <path
         id="Path 213"
         class="s1"
         d="m 38.7,458 c -3.3,0 -6,-3.4 -6,-7.6 0,-4.1 2.7,-7.5 6,-7.5 3.4,0 6.1,3.4 6.1,7.5 0,4.2 -2.7,7.6 -6.1,7.6 z" />
      <path
         id="Path 214"
         class="s1"
         d="m 38.7,511.6 c -3.5,0 -6.4,-3.5 -6.4,-7.9 0,-4.4 2.9,-7.9 6.4,-7.9 3.6,0 6.4,3.5 6.4,7.9 0,4.4 -2.8,7.9 -6.4,7.9 z" />
      <path
         id="Path 215"
         class="s1"
         d="m 38.7,565.2 c -3.6,0 -6.6,-3.7 -6.6,-8.2 0,-4.6 3,-8.3 6.6,-8.3 3.7,0 6.7,3.7 6.7,8.3 0,4.5 -3,8.2 -6.7,8.2 z" />
      <path
         id="Path 216"
         class="s1"
         d="m 38.7,618.7 c -3.7,0 -6.8,-3.8 -6.8,-8.5 0,-4.6 3.1,-8.4 6.8,-8.4 3.8,0 6.9,3.8 6.9,8.4 0,4.7 -3.1,8.5 -6.9,8.5 z" />
      <path
         id="Path 217"
         class="s1"
         d="m 38.7,672.1 c -3.8,0 -6.9,-3.9 -6.9,-8.6 0,-4.8 3.1,-8.6 6.9,-8.6 3.9,0 7,3.8 7,8.6 0,4.7 -3.1,8.6 -7,8.6 z" />
      <path
         id="Path 218"
         class="s1"
         d="m 38.7,725.4 c -3.8,0 -7,-3.9 -7,-8.7 0,-4.7 3.2,-8.6 7,-8.6 3.9,0 7,3.9 7,8.6 0,4.8 -3.1,8.7 -7,8.7 z" />
      <path
         id="Path 219"
         class="s1"
         d="m 38.7,778.6 c -3.8,0 -6.9,-3.9 -6.9,-8.6 0,-4.7 3.1,-8.6 6.9,-8.6 3.9,0 7,3.9 7,8.6 0,4.7 -3.1,8.6 -7,8.6 z" />
      <path
         id="Path 220"
         class="s1"
         d="m 38.7,831.4 c -3.6,0 -6.5,-3.6 -6.5,-8.1 0,-4.5 2.9,-8.2 6.5,-8.2 3.7,0 6.6,3.7 6.6,8.2 0,4.5 -2.9,8.1 -6.6,8.1 z" />
      <path
         id="Path 221"
         class="s1"
         d="m 38.7,884 c -3.3,0 -6,-3.3 -6,-7.5 0,-4.1 2.7,-7.5 6,-7.5 3.4,0 6.1,3.4 6.1,7.5 0,4.2 -2.7,7.5 -6.1,7.5 z" />
      <path
         id="Path 222"
         class="s1"
         d="m 38.7,936.5 c -2.9,0 -5.4,-3 -5.4,-6.7 0,-3.7 2.5,-6.7 5.4,-6.7 3,0 5.5,3 5.5,6.7 0,3.7 -2.5,6.7 -5.5,6.7 z" />
      <path
         id="Path 223"
         class="s1"
         d="m 38.7,988.9 c -2.6,0 -4.7,-2.6 -4.7,-5.8 0,-3.3 2.1,-5.9 4.7,-5.9 2.7,0 4.8,2.6 4.8,5.9 0,3.2 -2.1,5.8 -4.8,5.8 z" />
      <path
         id="Path 224"
         class="s1"
         d="m 38.7,1041.4 c -2.2,0 -4.1,-2.3 -4.1,-5.1 0,-2.8 1.9,-5 4.1,-5 2.3,0 4.1,2.2 4.1,5 0,2.8 -1.8,5.1 -4.1,5.1 z" />
      <path
         id="Path 225"
         class="s1"
         d="m 38.7,1093.9 c -1.9,0 -3.4,-2 -3.4,-4.3 0,-2.4 1.5,-4.3 3.4,-4.3 1.9,0 3.5,1.9 3.5,4.3 0,2.3 -1.6,4.3 -3.5,4.3 z" />
      <path
         id="Path 226"
         class="s1"
         d="m 38.7,1146.4 c -1.5,0 -2.8,-1.6 -2.8,-3.5 0,-2 1.3,-3.6 2.8,-3.6 1.6,0 2.9,1.6 2.9,3.6 0,1.9 -1.3,3.5 -2.9,3.5 z" />
      <path
         id="Path 227"
         class="s1"
         d="m 38.7,1199.3 c -1.4,0 -2.5,-1.4 -2.5,-3.2 0,-1.7 1.1,-3.1 2.5,-3.1 1.4,0 2.6,1.4 2.6,3.1 0,1.8 -1.2,3.2 -2.6,3.2 z" />
      <path
         id="Path 228"
         class="s1"
         d="m 38.7,1252.4 c -1.3,0 -2.4,-1.3 -2.4,-3 0,-1.7 1.1,-3 2.4,-3 1.4,0 2.5,1.3 2.5,3 0,1.7 -1.1,3 -2.5,3 z" />
      <path
         id="Path 229"
         class="s1"
         d="m 38.7,1305.7 c -1.3,0 -2.4,-1.4 -2.4,-3.1 0,-1.6 1.1,-3 2.4,-3 1.4,0 2.5,1.4 2.5,3 0,1.7 -1.1,3.1 -2.5,3.1 z" />
      <path
         id="Path 230"
         class="s1"
         d="m 38.7,1359.1 c -1.4,0 -2.5,-1.4 -2.5,-3.2 0,-1.8 1.1,-3.2 2.5,-3.2 1.5,0 2.6,1.4 2.6,3.2 0,1.8 -1.1,3.2 -2.6,3.2 z" />
      <path
         id="Path 231"
         class="s1"
         d="m 38.7,1412.5 c -1.5,0 -2.7,-1.5 -2.7,-3.3 0,-1.9 1.2,-3.4 2.7,-3.4 1.6,0 2.8,1.5 2.8,3.4 0,1.8 -1.2,3.3 -2.8,3.3 z" />
      <path
         id="Path 232"
         class="s1"
         d="m 38.7,1466 c -1.5,0 -2.8,-1.6 -2.8,-3.6 0,-1.9 1.3,-3.5 2.8,-3.5 1.6,0 2.9,1.6 2.9,3.5 0,2 -1.3,3.6 -2.9,3.6 z" />
      <path
         id="Path 233"
         class="s1"
         d="m 38.7,1519.4 c -1.6,0 -3,-1.6 -3,-3.7 0,-2.1 1.4,-3.7 3,-3.7 1.7,0 3.1,1.6 3.1,3.7 0,2.1 -1.4,3.7 -3.1,3.7 z" />
      <path
         id="Path 234"
         class="s1"
         d="m 38.7,1572.9 c -1.7,0 -3.1,-1.8 -3.1,-3.9 0,-2.2 1.4,-3.9 3.1,-3.9 1.8,0 3.2,1.7 3.2,3.9 0,2.1 -1.4,3.9 -3.2,3.9 z" />
      <path
         id="Path 235"
         class="s1"
         d="m 38.7,1626.3 c -1.8,0 -3.3,-1.8 -3.3,-4.1 0,-2.2 1.5,-4.1 3.3,-4.1 1.9,0 3.4,1.9 3.4,4.1 0,2.3 -1.5,4.1 -3.4,4.1 z" />
      <path
         id="Path 236"
         class="s1"
         d="m 38.7,1679.9 c -1.9,0 -3.5,-2 -3.5,-4.4 0,-2.4 1.6,-4.4 3.5,-4.4 2,0 3.6,2 3.6,4.4 0,2.4 -1.6,4.4 -3.6,4.4 z" />
      <path
         id="Path 237"
         class="s1"
         d="m 38.7,1733.4 c -2,0 -3.7,-2.1 -3.7,-4.6 0,-2.6 1.7,-4.7 3.7,-4.7 2.1,0 3.8,2.1 3.8,4.7 0,2.5 -1.7,4.6 -3.8,4.6 z" />
      <path
         id="Path 238"
         class="s1"
         d="m 38.7,1786.9 c -2.2,0 -3.9,-2.2 -3.9,-4.9 0,-2.7 1.7,-4.9 3.9,-4.9 2.2,0 4,2.2 4,4.9 0,2.7 -1.8,4.9 -4,4.9 z" />
      <path
         id="Path 239"
         class="s1"
         d="m 38.7,1840.5 c -2.3,0 -4.2,-2.3 -4.2,-5.2 0,-2.9 1.9,-5.2 4.2,-5.2 2.4,0 4.3,2.3 4.3,5.2 0,2.9 -1.9,5.2 -4.3,5.2 z" />
      <path
         id="Path 240"
         class="s1"
         d="m 38.7,1894 c -2.4,0 -4.4,-2.4 -4.4,-5.5 0,-3 2,-5.4 4.4,-5.4 2.5,0 4.5,2.4 4.5,5.4 0,3.1 -2,5.5 -4.5,5.5 z" />
      <path
         id="Path 241"
         class="s1"
         d="m 38.7,1947.7 c -2.6,0 -4.7,-2.6 -4.7,-5.9 0,-3.3 2.1,-5.9 4.7,-5.9 2.7,0 4.8,2.6 4.8,5.9 0,3.3 -2.1,5.9 -4.8,5.9 z" />
      <path
         id="Path 242"
         class="s1"
         d="m 38.7,2001.4 c -2.8,0 -5.1,-2.8 -5.1,-6.3 0,-3.5 2.3,-6.4 5.1,-6.4 2.9,0 5.2,2.9 5.2,6.4 0,3.5 -2.3,6.3 -5.2,6.3 z" />
      <path
         id="Path 243"
         class="s1"
         d="m 38.7,2055.1 c -3,0 -5.4,-3 -5.4,-6.8 0,-3.7 2.4,-6.7 5.4,-6.7 3.1,0 5.5,3 5.5,6.7 0,3.8 -2.4,6.8 -5.5,6.8 z" />
      <path
         id="Path 244"
         class="s1"
         d="m 38.7,2108.8 c -3.2,0 -5.7,-3.3 -5.7,-7.2 0,-4 2.5,-7.2 5.7,-7.2 3.2,0 5.8,3.2 5.8,7.2 0,3.9 -2.6,7.2 -5.8,7.2 z" />
      <path
         id="Path 245"
         class="s1"
         d="m 38.7,2162.4 c -3.3,0 -6.1,-3.4 -6.1,-7.5 0,-4.2 2.8,-7.6 6.1,-7.6 3.4,0 6.2,3.4 6.2,7.6 0,4.1 -2.8,7.5 -6.2,7.5 z" />
      <path
         id="Path 246"
         class="s1"
         d="m 38.7,2216.1 c -3.5,0 -6.4,-3.6 -6.4,-8 0,-4.4 2.9,-8 6.4,-8 3.6,0 6.5,3.6 6.5,8 0,4.4 -2.9,8 -6.5,8 z" />
      <path
         id="Path 247"
         class="s1"
         d="m 38.7,2269.8 c -3.7,0 -6.8,-3.8 -6.8,-8.4 0,-4.7 3.1,-8.4 6.8,-8.4 3.8,0 6.9,3.7 6.9,8.4 0,4.6 -3.1,8.4 -6.9,8.4 z" />
      <path
         id="Path 248"
         class="s1"
         d="m 38.7,2323.5 c -3.9,0 -7.1,-4 -7.1,-8.9 0,-4.8 3.2,-8.8 7.1,-8.8 4,0 7.2,4 7.2,8.8 0,4.9 -3.2,8.9 -7.2,8.9 z" />
      <path
         id="Path 249"
         class="s1"
         d="m 38.7,2377.3 c -4.2,0 -7.6,-4.2 -7.6,-9.4 0,-5.2 3.4,-9.4 7.6,-9.4 4.2,0 7.7,4.2 7.7,9.4 0,5.2 -3.5,9.4 -7.7,9.4 z" />
      <path
         id="Path 250"
         class="s1"
         d="m 38.7,2431.2 c -4.4,0 -8.1,-4.5 -8.1,-10 0,-5.6 3.7,-10.1 8.1,-10.1 4.5,0 8.1,4.5 8.1,10.1 0,5.5 -3.6,10 -8.1,10 z" />
      <path
         id="Path 251"
         class="s1"
         d="m 38.7,2485.1 c -4.7,0 -8.5,-4.8 -8.5,-10.7 0,-5.8 3.8,-10.6 8.5,-10.6 4.8,0 8.6,4.8 8.6,10.6 0,5.9 -3.8,10.7 -8.6,10.7 z" />
      <path
         id="Path 252"
         class="s1"
         d="m 38.7,2538.9 c -5,0 -9,-5 -9,-11.2 0,-6.2 4,-11.2 9,-11.2 5.1,0 9.1,5 9.1,11.2 0,6.2 -4,11.2 -9.1,11.2 z" />
      <path
         id="Path 253"
         class="s1"
         d="m 38.7,2592.8 c -5.2,0 -9.5,-5.3 -9.5,-11.8 0,-6.6 4.3,-11.9 9.5,-11.9 5.3,0 9.6,5.3 9.6,11.9 0,6.5 -4.3,11.8 -9.6,11.8 z" />
      <path
         id="Path 254"
         class="s1"
         d="m 38.7,2646.8 c -5.6,0 -10.1,-5.6 -10.1,-12.6 0,-6.9 4.5,-12.6 10.1,-12.6 5.7,0 10.2,5.7 10.2,12.6 0,7 -4.5,12.6 -10.2,12.6 z" />
      <path
         id="Path 255"
         class="s1"
         d="m 38.7,2700.8 c -5.9,0 -10.7,-5.9 -10.7,-13.3 0,-7.4 4.8,-13.4 10.7,-13.4 6,0 10.8,6 10.8,13.4 0,7.4 -4.8,13.3 -10.8,13.3 z" />
    </g>
    <g
       id="g12471"
       style="display:inline"
       transform="matrix(1,0,0,-1,0,5375.002)">
      <path
         id="path12369"
         class="s1"
         d="m 38.7,25.2 c -0.3,0 -0.7,-0.4 -0.7,-0.9 0,-0.5 0.4,-0.9 0.7,-0.9 0.4,0 0.8,0.4 0.8,0.9 0,0.5 -0.4,0.9 -0.8,0.9 z" />
      <path
         id="path12371"
         class="s1"
         d="m 38.7,79.8 c -0.9,0 -1.7,-1 -1.7,-2.2 0,-1.2 0.8,-2.2 1.7,-2.2 1,0 1.8,1 1.8,2.2 0,1.2 -0.8,2.2 -1.8,2.2 z" />
      <path
         id="path12373"
         class="s1"
         d="m 38.7,134.1 c -1.4,0 -2.6,-1.4 -2.6,-3.2 0,-1.8 1.2,-3.3 2.6,-3.3 1.5,0 2.7,1.5 2.7,3.3 0,1.8 -1.2,3.2 -2.7,3.2 z" />
      <path
         id="path12375"
         class="s1"
         d="m 38.7,188.4 c -1.9,0 -3.4,-1.9 -3.4,-4.3 0,-2.4 1.5,-4.3 3.4,-4.3 2,0 3.5,1.9 3.5,4.3 0,2.4 -1.5,4.3 -3.5,4.3 z" />
      <path
         id="path12377"
         class="s1"
         d="m 38.7,242.5 c -2.3,0 -4.1,-2.3 -4.1,-5.1 0,-2.9 1.8,-5.2 4.1,-5.2 2.3,0 4.2,2.3 4.2,5.2 0,2.8 -1.9,5.1 -4.2,5.1 z" />
      <path
         id="path12379"
         class="s1"
         d="m 38.7,296.6 c -2.6,0 -4.7,-2.7 -4.7,-6 0,-3.2 2.1,-5.9 4.7,-5.9 2.7,0 4.8,2.7 4.8,5.9 0,3.3 -2.1,6 -4.8,6 z" />
      <path
         id="path12381"
         class="s1"
         d="m 38.7,350.4 c -2.9,0 -5.2,-2.9 -5.2,-6.5 0,-3.6 2.3,-6.5 5.2,-6.5 3,0 5.3,2.9 5.3,6.5 0,3.6 -2.3,6.5 -5.3,6.5 z" />
      <path
         id="path12383"
         class="s1"
         d="m 38.7,404.3 c -3.1,0 -5.7,-3.2 -5.7,-7.1 0,-4 2.6,-7.1 5.7,-7.1 3.2,0 5.8,3.1 5.8,7.1 0,3.9 -2.6,7.1 -5.8,7.1 z" />
      <path
         id="path12385"
         class="s1"
         d="m 38.7,458 c -3.3,0 -6,-3.4 -6,-7.6 0,-4.1 2.7,-7.5 6,-7.5 3.4,0 6.1,3.4 6.1,7.5 0,4.2 -2.7,7.6 -6.1,7.6 z" />
      <path
         id="path12387"
         class="s1"
         d="m 38.7,511.6 c -3.5,0 -6.4,-3.5 -6.4,-7.9 0,-4.4 2.9,-7.9 6.4,-7.9 3.6,0 6.4,3.5 6.4,7.9 0,4.4 -2.8,7.9 -6.4,7.9 z" />
      <path
         id="path12389"
         class="s1"
         d="m 38.7,565.2 c -3.6,0 -6.6,-3.7 -6.6,-8.2 0,-4.6 3,-8.3 6.6,-8.3 3.7,0 6.7,3.7 6.7,8.3 0,4.5 -3,8.2 -6.7,8.2 z" />
      <path
         id="path12391"
         class="s1"
         d="m 38.7,618.7 c -3.7,0 -6.8,-3.8 -6.8,-8.5 0,-4.6 3.1,-8.4 6.8,-8.4 3.8,0 6.9,3.8 6.9,8.4 0,4.7 -3.1,8.5 -6.9,8.5 z" />
      <path
         id="path12393"
         class="s1"
         d="m 38.7,672.1 c -3.8,0 -6.9,-3.9 -6.9,-8.6 0,-4.8 3.1,-8.6 6.9,-8.6 3.9,0 7,3.8 7,8.6 0,4.7 -3.1,8.6 -7,8.6 z" />
      <path
         id="path12395"
         class="s1"
         d="m 38.7,725.4 c -3.8,0 -7,-3.9 -7,-8.7 0,-4.7 3.2,-8.6 7,-8.6 3.9,0 7,3.9 7,8.6 0,4.8 -3.1,8.7 -7,8.7 z" />
      <path
         id="path12397"
         class="s1"
         d="m 38.7,778.6 c -3.8,0 -6.9,-3.9 -6.9,-8.6 0,-4.7 3.1,-8.6 6.9,-8.6 3.9,0 7,3.9 7,8.6 0,4.7 -3.1,8.6 -7,8.6 z" />
      <path
         id="path12399"
         class="s1"
         d="m 38.7,831.4 c -3.6,0 -6.5,-3.6 -6.5,-8.1 0,-4.5 2.9,-8.2 6.5,-8.2 3.7,0 6.6,3.7 6.6,8.2 0,4.5 -2.9,8.1 -6.6,8.1 z" />
      <path
         id="path12401"
         class="s1"
         d="m 38.7,884 c -3.3,0 -6,-3.3 -6,-7.5 0,-4.1 2.7,-7.5 6,-7.5 3.4,0 6.1,3.4 6.1,7.5 0,4.2 -2.7,7.5 -6.1,7.5 z" />
      <path
         id="path12403"
         class="s1"
         d="m 38.7,936.5 c -2.9,0 -5.4,-3 -5.4,-6.7 0,-3.7 2.5,-6.7 5.4,-6.7 3,0 5.5,3 5.5,6.7 0,3.7 -2.5,6.7 -5.5,6.7 z" />
      <path
         id="path12405"
         class="s1"
         d="m 38.7,988.9 c -2.6,0 -4.7,-2.6 -4.7,-5.8 0,-3.3 2.1,-5.9 4.7,-5.9 2.7,0 4.8,2.6 4.8,5.9 0,3.2 -2.1,5.8 -4.8,5.8 z" />
      <path
         id="path12407"
         class="s1"
         d="m 38.7,1041.4 c -2.2,0 -4.1,-2.3 -4.1,-5.1 0,-2.8 1.9,-5 4.1,-5 2.3,0 4.1,2.2 4.1,5 0,2.8 -1.8,5.1 -4.1,5.1 z" />
      <path
         id="path12409"
         class="s1"
         d="m 38.7,1093.9 c -1.9,0 -3.4,-2 -3.4,-4.3 0,-2.4 1.5,-4.3 3.4,-4.3 1.9,0 3.5,1.9 3.5,4.3 0,2.3 -1.6,4.3 -3.5,4.3 z" />
      <path
         id="path12411"
         class="s1"
         d="m 38.7,1146.4 c -1.5,0 -2.8,-1.6 -2.8,-3.5 0,-2 1.3,-3.6 2.8,-3.6 1.6,0 2.9,1.6 2.9,3.6 0,1.9 -1.3,3.5 -2.9,3.5 z" />
      <path
         id="path12413"
         class="s1"
         d="m 38.7,1199.3 c -1.4,0 -2.5,-1.4 -2.5,-3.2 0,-1.7 1.1,-3.1 2.5,-3.1 1.4,0 2.6,1.4 2.6,3.1 0,1.8 -1.2,3.2 -2.6,3.2 z" />
      <path
         id="path12415"
         class="s1"
         d="m 38.7,1252.4 c -1.3,0 -2.4,-1.3 -2.4,-3 0,-1.7 1.1,-3 2.4,-3 1.4,0 2.5,1.3 2.5,3 0,1.7 -1.1,3 -2.5,3 z" />
      <path
         id="path12417"
         class="s1"
         d="m 38.7,1305.7 c -1.3,0 -2.4,-1.4 -2.4,-3.1 0,-1.6 1.1,-3 2.4,-3 1.4,0 2.5,1.4 2.5,3 0,1.7 -1.1,3.1 -2.5,3.1 z" />
      <path
         id="path12419"
         class="s1"
         d="m 38.7,1359.1 c -1.4,0 -2.5,-1.4 -2.5,-3.2 0,-1.8 1.1,-3.2 2.5,-3.2 1.5,0 2.6,1.4 2.6,3.2 0,1.8 -1.1,3.2 -2.6,3.2 z" />
      <path
         id="path12421"
         class="s1"
         d="m 38.7,1412.5 c -1.5,0 -2.7,-1.5 -2.7,-3.3 0,-1.9 1.2,-3.4 2.7,-3.4 1.6,0 2.8,1.5 2.8,3.4 0,1.8 -1.2,3.3 -2.8,3.3 z" />
      <path
         id="path12423"
         class="s1"
         d="m 38.7,1466 c -1.5,0 -2.8,-1.6 -2.8,-3.6 0,-1.9 1.3,-3.5 2.8,-3.5 1.6,0 2.9,1.6 2.9,3.5 0,2 -1.3,3.6 -2.9,3.6 z" />
      <path
         id="path12425"
         class="s1"
         d="m 38.7,1519.4 c -1.6,0 -3,-1.6 -3,-3.7 0,-2.1 1.4,-3.7 3,-3.7 1.7,0 3.1,1.6 3.1,3.7 0,2.1 -1.4,3.7 -3.1,3.7 z" />
      <path
         id="path12427"
         class="s1"
         d="m 38.7,1572.9 c -1.7,0 -3.1,-1.8 -3.1,-3.9 0,-2.2 1.4,-3.9 3.1,-3.9 1.8,0 3.2,1.7 3.2,3.9 0,2.1 -1.4,3.9 -3.2,3.9 z" />
      <path
         id="path12429"
         class="s1"
         d="m 38.7,1626.3 c -1.8,0 -3.3,-1.8 -3.3,-4.1 0,-2.2 1.5,-4.1 3.3,-4.1 1.9,0 3.4,1.9 3.4,4.1 0,2.3 -1.5,4.1 -3.4,4.1 z" />
      <path
         id="path12431"
         class="s1"
         d="m 38.7,1679.9 c -1.9,0 -3.5,-2 -3.5,-4.4 0,-2.4 1.6,-4.4 3.5,-4.4 2,0 3.6,2 3.6,4.4 0,2.4 -1.6,4.4 -3.6,4.4 z" />
      <path
         id="path12433"
         class="s1"
         d="m 38.7,1733.4 c -2,0 -3.7,-2.1 -3.7,-4.6 0,-2.6 1.7,-4.7 3.7,-4.7 2.1,0 3.8,2.1 3.8,4.7 0,2.5 -1.7,4.6 -3.8,4.6 z" />
      <path
         id="path12435"
         class="s1"
         d="m 38.7,1786.9 c -2.2,0 -3.9,-2.2 -3.9,-4.9 0,-2.7 1.7,-4.9 3.9,-4.9 2.2,0 4,2.2 4,4.9 0,2.7 -1.8,4.9 -4,4.9 z" />
      <path
         id="path12437"
         class="s1"
         d="m 38.7,1840.5 c -2.3,0 -4.2,-2.3 -4.2,-5.2 0,-2.9 1.9,-5.2 4.2,-5.2 2.4,0 4.3,2.3 4.3,5.2 0,2.9 -1.9,5.2 -4.3,5.2 z" />
      <path
         id="path12439"
         class="s1"
         d="m 38.7,1894 c -2.4,0 -4.4,-2.4 -4.4,-5.5 0,-3 2,-5.4 4.4,-5.4 2.5,0 4.5,2.4 4.5,5.4 0,3.1 -2,5.5 -4.5,5.5 z" />
      <path
         id="path12441"
         class="s1"
         d="m 38.7,1947.7 c -2.6,0 -4.7,-2.6 -4.7,-5.9 0,-3.3 2.1,-5.9 4.7,-5.9 2.7,0 4.8,2.6 4.8,5.9 0,3.3 -2.1,5.9 -4.8,5.9 z" />
      <path
         id="path12443"
         class="s1"
         d="m 38.7,2001.4 c -2.8,0 -5.1,-2.8 -5.1,-6.3 0,-3.5 2.3,-6.4 5.1,-6.4 2.9,0 5.2,2.9 5.2,6.4 0,3.5 -2.3,6.3 -5.2,6.3 z" />
      <path
         id="path12445"
         class="s1"
         d="m 38.7,2055.1 c -3,0 -5.4,-3 -5.4,-6.8 0,-3.7 2.4,-6.7 5.4,-6.7 3.1,0 5.5,3 5.5,6.7 0,3.8 -2.4,6.8 -5.5,6.8 z" />
      <path
         id="path12447"
         class="s1"
         d="m 38.7,2108.8 c -3.2,0 -5.7,-3.3 -5.7,-7.2 0,-4 2.5,-7.2 5.7,-7.2 3.2,0 5.8,3.2 5.8,7.2 0,3.9 -2.6,7.2 -5.8,7.2 z" />
      <path
         id="path12449"
         class="s1"
         d="m 38.7,2162.4 c -3.3,0 -6.1,-3.4 -6.1,-7.5 0,-4.2 2.8,-7.6 6.1,-7.6 3.4,0 6.2,3.4 6.2,7.6 0,4.1 -2.8,7.5 -6.2,7.5 z" />
      <path
         id="path12451"
         class="s1"
         d="m 38.7,2216.1 c -3.5,0 -6.4,-3.6 -6.4,-8 0,-4.4 2.9,-8 6.4,-8 3.6,0 6.5,3.6 6.5,8 0,4.4 -2.9,8 -6.5,8 z" />
      <path
         id="path12453"
         class="s1"
         d="m 38.7,2269.8 c -3.7,0 -6.8,-3.8 -6.8,-8.4 0,-4.7 3.1,-8.4 6.8,-8.4 3.8,0 6.9,3.7 6.9,8.4 0,4.6 -3.1,8.4 -6.9,8.4 z" />
      <path
         id="path12455"
         class="s1"
         d="m 38.7,2323.5 c -3.9,0 -7.1,-4 -7.1,-8.9 0,-4.8 3.2,-8.8 7.1,-8.8 4,0 7.2,4 7.2,8.8 0,4.9 -3.2,8.9 -7.2,8.9 z" />
      <path
         id="path12457"
         class="s1"
         d="m 38.7,2377.3 c -4.2,0 -7.6,-4.2 -7.6,-9.4 0,-5.2 3.4,-9.4 7.6,-9.4 4.2,0 7.7,4.2 7.7,9.4 0,5.2 -3.5,9.4 -7.7,9.4 z" />
      <path
         id="path12459"
         class="s1"
         d="m 38.7,2431.2 c -4.4,0 -8.1,-4.5 -8.1,-10 0,-5.6 3.7,-10.1 8.1,-10.1 4.5,0 8.1,4.5 8.1,10.1 0,5.5 -3.6,10 -8.1,10 z" />
      <path
         id="path12461"
         class="s1"
         d="m 38.7,2485.1 c -4.7,0 -8.5,-4.8 -8.5,-10.7 0,-5.8 3.8,-10.6 8.5,-10.6 4.8,0 8.6,4.8 8.6,10.6 0,5.9 -3.8,10.7 -8.6,10.7 z" />
      <path
         id="path12463"
         class="s1"
         d="m 38.7,2538.9 c -5,0 -9,-5 -9,-11.2 0,-6.2 4,-11.2 9,-11.2 5.1,0 9.1,5 9.1,11.2 0,6.2 -4,11.2 -9.1,11.2 z" />
      <path
         id="path12465"
         class="s1"
         d="m 38.7,2592.8 c -5.2,0 -9.5,-5.3 -9.5,-11.8 0,-6.6 4.3,-11.9 9.5,-11.9 5.3,0 9.6,5.3 9.6,11.9 0,6.5 -4.3,11.8 -9.6,11.8 z" />
      <path
         id="path12467"
         class="s1"
         d="m 38.7,2646.8 c -5.6,0 -10.1,-5.6 -10.1,-12.6 0,-6.9 4.5,-12.6 10.1,-12.6 5.7,0 10.2,5.7 10.2,12.6 0,7 -4.5,12.6 -10.2,12.6 z" />
    </g>
  </g>
  <metadata
     id="metadata12035">
    <rdf:RDF>
      <cc:Work
         rdf:about="">
        <dc:title>Web 1920 – 2</dc:title>
      </cc:Work>
    </rdf:RDF>
  </metadata>
</svg>
